<svg width="256" height="256" viewBox="0 0 256 256" fill="none" xmlns="http://www.w3.org/2000/svg">
<rect width="256" height="256" fill="white"/>
<path d="M81.454 65.4613C100.295 79.5899 120.56 108.237 128 123.61C135.441 108.238 155.705 79.5896 174.546 65.4613C188.14 55.2667 210.167 47.3787 210.167 72.4788C210.167 77.4916 207.289 114.589 205.602 120.612C199.736 141.551 178.361 146.891 159.348 143.659C192.583 149.309 201.037 168.025 182.779 186.74C148.101 222.284 132.937 177.822 129.05 166.429C128.338 164.34 128.004 163.363 128 164.194C127.995 163.363 127.661 164.34 126.949 166.429C123.063 177.822 107.9 222.286 73.2205 186.74C54.9614 168.025 63.4158 149.308 96.6513 143.659C77.6374 146.891 56.2622 141.551 50.3972 120.612C48.7096 114.589 45.8324 77.4911 45.8324 72.4788C45.8324 47.3787 67.8593 55.2667 81.453 65.4613H81.454Z" fill="#1185FE"/>
<circle cx="123" cy="35" r="5" fill="#76B9FF"/>
<circle cx="42.5" cy="199.5" r="8.5" fill="#077BF4"/>
<circle cx="219" cy="146" r="12" fill="#005AB8"/>
</svg>
