<svg fill="none" height="163" viewBox="0 0 150 163" width="150" xmlns="http://www.w3.org/2000/svg" xmlns:xlink="http://www.w3.org/1999/xlink"><clipPath id="a"><path d="m8 8h134v65h-134z"/></clipPath><clipPath id="b"><path d="m8 81h134v66h-134z"/></clipPath><path d="m0 0h150v163h-150z" fill="#fff"/><g clip-path="url(#a)"><circle cx="20" cy="20" fill="#1185fe" r="12"/><path d="m40 10.5h87v11h-87z" fill="#1185fe"/><path d="m40 24.5h97v6h-97z" fill="#666"/><g fill="#333"><path d="m40 40h102v3h-102z"/><path d="m40 46h82v3h-82z"/><path d="m40 52h94v3h-94z"/><path d="m40 58h88v3h-88z"/><path d="m40 70h88v3h-88z"/><path d="m40 64h97v3h-97z"/></g></g><g clip-path="url(#b)"><circle cx="20" cy="93.5" fill="#1185fe" r="12"/><path d="m40 84h87v11h-87z" fill="#1185fe"/><path d="m40 98h97v6h-97z" fill="#666"/><g fill="#333"><path d="m40 113.5h102v3h-102z"/><path d="m40 119.5h82v3h-82z"/><path d="m40 125.5h94v3h-94z"/><path d="m40 131.5h88v3h-88z"/><path d="m40 143.5h88v3h-88z"/><path d="m40 137.5h97v3h-97z"/></g></g></svg>