<svg fill="none" height="163" viewBox="0 0 150 163" width="150" xmlns="http://www.w3.org/2000/svg" xmlns:xlink="http://www.w3.org/1999/xlink"><clipPath id="a"><path d="m8 8h134v24h-134z"/></clipPath><clipPath id="b"><path d="m8 46h134v27h-134z"/></clipPath><clipPath id="c"><path d="m8 87h134v27h-134z"/></clipPath><clipPath id="d"><path d="m8 128h134v27h-134z"/></clipPath><path d="m0 0h150v163h-150z" fill="#fff"/><g clip-path="url(#a)"><circle cx="20" cy="20" fill="#1185fe" r="12"/><path d="m36 10h70v11h-70z" fill="#1185fe"/><path d="m36 24h87v6h-87z" fill="#666"/><path d="m138.749 14.321c-1.72 1.283-3.57 3.8844-4.249 5.2805-.679-1.396-2.529-3.9975-4.249-5.2805-1.24-.9258-3.251-1.6421-3.251.6372 0 .4552.263 3.8241.417 4.371.535 1.9015 2.486 2.3864 4.222 2.0929-3.034.5131-3.806 2.2127-2.139 3.9122 3.165 3.2278 4.549-.8099 4.904-1.8444.065-.1897.096-.2784.096-.203 0-.0754.031.0133.096.203.355 1.0345 1.739 5.0723 4.904 1.8444 1.667-1.6995.895-3.3992-2.139-3.9122 1.736.2935 3.687-.1914 4.222-2.0929.154-.547.417-3.9158.417-4.371 0-2.2793-2.011-1.563-3.251-.6372z" fill="#1185fe"/></g><g fill="#333"><g clip-path="url(#b)"><path d="m8 46h134v3h-134z"/><path d="m8 52h109.571v3h-109.571z"/><path d="m8 58h124.229v3h-124.229z"/><path d="m8 64h116.9v3h-116.9z"/><path d="m8 70h127.893v3h-127.893z"/></g><g clip-path="url(#c)"><path d="m8 87h134v3h-134z"/><path d="m8 93h109.571v3h-109.571z"/><path d="m8 99h124.229v3h-124.229z"/><path d="m8 105h116.9v3h-116.9z"/><path d="m8 111h127.893v3h-127.893z"/></g><g clip-path="url(#d)"><path d="m8 128h134v3h-134z"/><path d="m8 134h109.571v3h-109.571z"/><path d="m8 140h124.229v3h-124.229z"/><path d="m8 146h116.9v3h-116.9z"/><path d="m8 152h127.893v3h-127.893z"/></g></g></svg>